<svg xmlns="http://www.w3.org/2000/svg" width="61" height="60" fill="none"><mask id="a" width="61" height="60" x="0" y="0" maskUnits="userSpaceOnUse" style="mask-type:luminance"><path fill="#fff" d="M.5 0h60v60H.5V0Z"/></mask><g mask="url(#a)"><path fill="#73CA5B" fill-rule="evenodd" d="M27.706 57.198c.335-1.65 2.033-6.43 10.454-6.23 0 0 1.023-9.184 6.444-11.535a6.782 6.782 0 1 1 6.614 4.508c-1.202 9.41-8.873 17.966-23.592 13.808 0 0 .01-.208.08-.551Z" clip-rule="evenodd"/><path fill="#A6F074" fill-rule="evenodd" d="M18.93 43.274c7.069 5.401 8.696 14.475 8.696 14.475-12.64 0-22.886-10.626-22.886-23.733 0-3.217.62-6.285 1.738-9.083-.033.242-1.504 11.614 8.676 16.106a18.518 18.518 0 0 1 3.775 2.235Z" clip-rule="evenodd"/><path fill="#73CA5B" fill-rule="evenodd" d="M16.607 32.805c4.36 2.422 2.322 10.47 2.322 10.47a18.515 18.515 0 0 0-3.775-2.236c-10.18-4.492-8.709-15.864-8.676-16.106h-.001c-5.963-4.008-2.594-9.056 1.096-8.8v.001c1.112.077 2.254.636 3.177 1.85l.001.001v.001c2.03 2.005 1.981 5.374 1.981 5.374 4.057 2.655 3.875 9.445 3.875 9.445Z" clip-rule="evenodd"/><path fill="#A6F074" fill-rule="evenodd" d="M50.247 30.398c-1.591-10.785-10.183-19.181-20.815-20.042 0 0 2.585-4.485 9.286-2.722h.001c1.452.382 3.097 1.057 4.95 2.135 0 0 5.57-2.422 7.75 3.511 7.142.621 8.05 8.297 3.633 12.714 0 0 1.315 2.008-.553 5.363a6.747 6.747 0 0 0-4.248-.933l-.004-.026Z" clip-rule="evenodd"/><path fill="#DCFFB6" fill-rule="evenodd" d="m50.247 30.398.004.026a6.782 6.782 0 0 0-5.647 9.009c-5.421 2.351-6.444 11.535-6.444 11.535-8.42-.2-10.119 4.58-10.454 6.23-.07.343-.08.55-.08.55s-1.627-9.073-8.697-14.474c0 0 2.037-8.047-2.322-10.469 0 0 .182-6.79-3.875-9.444 0 0 .048-3.37-1.98-5.375 4.183-4.734 10.194-7.703 16.874-7.703.608 0 1.21.026 1.806.074 10.632.861 19.224 9.256 20.815 20.041Z" clip-rule="evenodd"/><path fill="#73CA5B" fill-rule="evenodd" d="M38.72 7.633s-1.589-6.461-9.096-6.461-8.476 5.327-8.476 5.327S8.755 5.183 7.573 16.133v.001c1.112.077 2.254.636 3.177 1.85l.002.002c4.183-4.734 10.194-7.703 16.874-7.703.608 0 1.21.026 1.806.074v-.001s2.585-4.485 9.286-2.722h.001Z" clip-rule="evenodd"/><path stroke="#000" stroke-linecap="round" stroke-linejoin="round" stroke-miterlimit="2.613" stroke-width="2.461" d="M29.432 10.356s3.824-6.641 14.238-.587c0 0 5.57-2.422 7.75 3.511 7.141.621 8.05 8.297 3.632 12.714 0 0 1.315 2.008-.553 5.363h0a6.748 6.748 0 0 0-4.248-.933C48.67 19.626 40.073 11.22 29.432 10.357v-.001Z"/><path stroke="#000" stroke-linecap="round" stroke-linejoin="round" stroke-miterlimit="2.613" stroke-width="2.461" d="M9.6 48.639c4.188 5.546 10.706 9.11 18.026 9.11 0 0 .363-7.023 10.534-6.78 0 0 1.023-9.185 6.444-11.536a6.782 6.782 0 0 1 5.647-9.008c-1.67-11.4-11.227-20.29-22.916-20.14M7.7 45.697l.029.053M6.478 24.933a24.424 24.424 0 0 0-1.738 9.083c0 2.504.375 4.918 1.068 7.184m13.431-29.273a22.926 22.926 0 0 0-8.488 6.058m11.653-7.082-.015.004"/><path stroke="#000" stroke-linecap="round" stroke-linejoin="round" stroke-miterlimit="2.613" stroke-width="2.461" d="M35.194 20.303s-13.523 7.434-7.488 36.895M27.626 57.749s-2.182-12.17-12.472-16.71c-10.18-4.492-8.709-15.864-8.676-16.106"/><path stroke="#000" stroke-linecap="round" stroke-linejoin="round" stroke-miterlimit="2.613" stroke-width="2.461" d="M50.995 30.383a6.78 6.78 0 0 0-6.391 9.05c-5.422 2.351-6.444 11.535-6.444 11.535-10.17-.242-10.534 6.78-10.534 6.78 14.719 4.16 22.39-4.397 23.591-13.807a6.78 6.78 0 0 0-.221-13.558ZM16.607 32.805c4.36 2.422 2.322 10.47 2.322 10.47a18.522 18.522 0 0 0-3.73-2.216l-.045-.02c-10.18-4.492-8.709-15.864-8.676-16.106h-.001c-7.76-5.216.286-12.194 4.273-6.948 2.03 2.004 1.982 5.375 1.982 5.375 4.057 2.655 3.875 9.445 3.875 9.445Z"/><path stroke="#000" stroke-linecap="round" stroke-linejoin="round" stroke-miterlimit="2.613" stroke-width="2.461" d="M38.718 7.634h.001s-1.588-6.462-9.095-6.462c-7.507 0-8.476 5.327-8.476 5.327S8.755 5.183 7.573 16.133v.001c1.112.077 2.254.636 3.177 1.85l.002.002M29.2 27.677c2.42-2.391 8.465-3.593 12.219-.536M27.117 33.827s-2.887-9.548-7.61-10.698M32.413 38.673c-2.458-.004-5.537.946-6.255 3.965m9.29-3.207a.965.965 0 0 0-.043-.039M21.148 6.5l1.23.978M38.16 50.968c1.793-.017 3.14.355 3.994 1.158M12.732 23.36s-.834 2.817-.482 6.244M51.42 13.28s-2.359-.035-3.727 1.268M51.217 43.941s.213-3.605.74-4.572"/></g></svg>