<svg xmlns="http://www.w3.org/2000/svg" width="61" height="60" fill="none"><g clip-path="url(#a)"><mask id="b" width="61" height="60" x="0" y="0" maskUnits="userSpaceOnUse" style="mask-type:luminance"><path fill="#fff" d="M.5 0h60v60H.5V0Z"/></mask><g mask="url(#b)"><path fill="#09A76D" d="M19.71 4.332a.387.387 0 0 0-.461 0C16.709 6.217 14.974 10 14.974 14.36c0 4.36 1.735 8.142 4.275 10.026a.387.387 0 0 0 .462 0c2.54-1.884 4.274-5.667 4.274-10.026 0-4.36-1.734-8.142-4.274-10.027Z"/><path stroke="#000" stroke-linecap="round" stroke-linejoin="round" stroke-miterlimit="10" stroke-width="1.816" d="M19.71 4.332a.387.387 0 0 0-.461 0C16.709 6.217 14.974 10 14.974 14.36c0 4.36 1.735 8.142 4.275 10.026a.387.387 0 0 0 .462 0c2.54-1.884 4.274-5.667 4.274-10.026 0-4.36-1.734-8.142-4.274-10.027Z"/><path fill="#02905D" d="M6.188 7.106a.387.387 0 0 0-.326.326c-.464 3.129.984 7.03 4.067 10.113 3.083 3.082 6.984 4.53 10.112 4.067a.387.387 0 0 0 .327-.327c.464-3.129-.985-7.03-4.067-10.112C13.218 8.09 9.317 6.642 6.188 7.106Z"/><path stroke="#000" stroke-linecap="round" stroke-linejoin="round" stroke-miterlimit="10" stroke-width="1.816" d="M6.188 7.106a.387.387 0 0 0-.326.326c-.464 3.129.984 7.03 4.067 10.113 3.083 3.082 6.984 4.53 10.112 4.067a.387.387 0 0 0 .327-.327c.464-3.129-.985-7.03-4.067-10.112C13.218 8.09 9.317 6.642 6.188 7.106Z"/><path fill="#02905D" d="M33.098 7.432a.387.387 0 0 0-.327-.326c-3.129-.464-7.03.984-10.112 4.067-3.083 3.082-4.531 6.984-4.067 10.112.025.17.157.302.326.327 3.129.463 7.03-.985 10.113-4.067 3.082-3.083 4.53-6.984 4.067-10.113Z"/><path stroke="#000" stroke-linecap="round" stroke-linejoin="round" stroke-miterlimit="10" stroke-width="1.816" d="M26.527 8.339a15.365 15.365 0 0 0-3.868 2.834c-3.083 3.082-4.531 6.984-4.067 10.112.025.17.157.302.326.327 3.129.463 7.03-.985 10.113-4.067 3.082-3.083 4.53-6.984 4.067-10.113a.387.387 0 0 0-.327-.326 8.63 8.63 0 0 0-2.334-.01"/><path fill="#09A76D" d="M23.08 17.78a.386.386 0 0 1-.13-.45c.837-2.127 3.12-4.063 6.136-4.926 3.017-.863 5.978-.427 7.813.934.14.105.193.29.129.452-.837 2.126-3.12 4.062-6.136 4.925-3.016.863-5.978.428-7.812-.934ZM15.88 17.78a.386.386 0 0 0 .13-.45c-.837-2.127-3.12-4.063-6.137-4.926-3.016-.863-5.978-.427-7.812.934a.386.386 0 0 0-.13.452c.837 2.126 3.12 4.062 6.137 4.925 3.016.863 5.978.428 7.812-.934Z"/><path stroke="#000" stroke-linecap="round" stroke-linejoin="round" stroke-miterlimit="10" stroke-width="1.816" d="M23.08 17.78a.386.386 0 0 1-.13-.45c.837-2.127 3.12-4.063 6.136-4.926 3.017-.863 5.978-.427 7.813.934.14.105.193.29.129.452-.837 2.126-3.12 4.062-6.136 4.925-3.016.863-5.978.428-7.812-.934ZM15.88 17.78a.386.386 0 0 0 .13-.45c-.837-2.127-3.12-4.063-6.137-4.926-3.016-.863-5.978-.427-7.812.934a.386.386 0 0 0-.13.452c.837 2.126 3.12 4.062 6.137 4.925 3.016.863 5.978.428 7.812-.934Z"/><path fill="#FB2B3A" d="M24.431 51.49 36.363 30.08c3.536-6.344-1.051-14.151-8.314-14.151H10.91c-7.263 0-11.85 7.807-8.314 14.151L14.528 51.49c2.162 3.879 7.742 3.879 9.903 0Z"/><path fill="#E41F2D" d="M20.68 51.49 8.75 30.08C5.212 23.737 9.8 15.93 17.062 15.93h-6.152c-7.263 0-11.85 7.808-8.314 14.152L14.528 51.49c1.681 3.016 5.428 3.686 8.028 2.012a5.632 5.632 0 0 1-1.876-2.012Z"/><path stroke="#000" stroke-linecap="round" stroke-linejoin="round" stroke-miterlimit="10" stroke-width="1.816" d="M24.431 51.49 36.363 30.08c3.536-6.344-1.05-14.151-8.314-14.151H10.91c-7.263 0-11.85 7.807-8.314 14.151L14.528 51.49c2.162 3.879 7.742 3.879 9.903 0ZM8.323 26.981v1.54M15.76 26.981v1.54M23.199 26.981v1.54M30.636 26.981v1.54M12.042 21.26v1.54M19.48 21.26v1.54M26.917 21.26v1.54M12.042 33.418v1.54M19.48 33.418v1.54M26.917 33.418v1.54M15.618 39.458v1.54M23.056 39.458v1.54M19.337 46.004v1.54"/><path fill="#09A76D" d="M53.527 25.146a.32.32 0 0 0-.27-.271c-2.595-.384-5.83.816-8.385 3.372-2.556 2.556-3.756 5.79-3.372 8.384.021.14.13.25.271.27 2.594.385 5.828-.816 8.384-3.371 2.556-2.556 3.756-5.79 3.372-8.384Z"/><path stroke="#000" stroke-linecap="round" stroke-linejoin="round" stroke-miterlimit="10" stroke-width="1.816" d="M53.527 25.146a.32.32 0 0 0-.27-.271c-2.595-.384-5.83.816-8.385 3.372-2.556 2.556-3.756 5.79-3.372 8.384.021.14.13.25.271.27 2.594.385 5.828-.816 8.384-3.371 2.556-2.556 3.756-5.79 3.372-8.384Z"/><path fill="#02905D" d="M43.974 18.844a.32.32 0 0 0-.383 0c-2.106 1.563-3.544 4.699-3.544 8.313 0 3.614 1.438 6.75 3.544 8.313a.32.32 0 0 0 .383 0c2.106-1.563 3.544-4.699 3.544-8.313 0-3.614-1.438-6.75-3.544-8.313Z"/><path stroke="#000" stroke-linecap="round" stroke-linejoin="round" stroke-miterlimit="10" stroke-width="1.816" d="M45.839 20.908c-.528-.837-1.159-1.54-1.865-2.064a.32.32 0 0 0-.383 0c-2.106 1.563-3.544 4.699-3.544 8.313 0 3.614 1.438 6.75 3.544 8.313a.32.32 0 0 0 .383 0c2.106-1.563 3.544-4.699 3.544-8.313 0-.824-.076-1.623-.217-2.384"/><path fill="#09A76D" d="M59.558 34.811a.32.32 0 0 0 0-.383c-1.563-2.106-4.699-3.544-8.313-3.544-3.614 0-6.75 1.438-8.313 3.544a.32.32 0 0 0 0 .383c1.563 2.106 4.699 3.544 8.313 3.544 3.614 0 6.75-1.438 8.313-3.544Z"/><path stroke="#000" stroke-linecap="round" stroke-linejoin="round" stroke-miterlimit="10" stroke-width="1.816" d="M59.558 34.811a.32.32 0 0 0 0-.383c-1.563-2.106-4.699-3.544-8.313-3.544-3.614 0-6.75 1.438-8.313 3.544a.32.32 0 0 0 0 .383c1.563 2.106 4.699 3.544 8.313 3.544 3.614 0 6.75-1.438 8.313-3.544Z"/><path fill="#02905D" d="M47.618 35.005a.32.32 0 0 1 .189-.34c1.737-.756 4.21-.553 6.484.71 2.275 1.262 3.755 3.253 4.032 5.127a.32.32 0 0 1-.189.34c-1.736.757-4.21.553-6.484-.71-2.274-1.262-3.755-3.253-4.032-5.127Z"/><path stroke="#000" stroke-linecap="round" stroke-linejoin="round" stroke-miterlimit="10" stroke-width="1.816" d="M47.618 35.005a.32.32 0 0 1 .189-.34c1.737-.756 4.21-.553 6.484.71 2.275 1.262 3.755 3.253 4.032 5.127a.32.32 0 0 1-.189.34c-1.736.757-4.21.553-6.484-.71-2.274-1.262-3.755-3.253-4.032-5.127Z"/><path fill="#09A76D" d="M43.397 30.784a.32.32 0 0 0 .34-.189c.756-1.737.553-4.21-.71-6.484-1.262-2.275-3.253-3.756-5.127-4.032a.32.32 0 0 0-.34.188c-.757 1.737-.553 4.21.71 6.485 1.261 2.274 3.253 3.755 5.127 4.032Z"/><path stroke="#000" stroke-linecap="round" stroke-linejoin="round" stroke-miterlimit="10" stroke-width="1.816" d="M43.397 30.784a.32.32 0 0 0 .34-.189c.756-1.737.553-4.21-.71-6.484-1.262-2.275-3.253-3.756-5.127-4.032a.32.32 0 0 0-.34.188c-.757 1.737-.553 4.21.71 6.485 1.261 2.274 3.253 3.755 5.127 4.032Z"/><path fill="#FB2B3A" d="m28.649 55.56 19.545-5.557c5.792-1.646 7.68-8.912 3.422-13.17L41.57 26.786c-4.258-4.258-11.524-2.37-13.17 3.422l-5.556 19.545c-1.007 3.541 2.264 6.813 5.806 5.806Z"/><path fill="#E41F2D" d="m27.755 54.01 5.556-19.546c1.383-4.868 6.736-6.978 10.936-5l-2.678-2.678c-4.258-4.259-11.524-2.37-13.17 3.422l-5.556 19.545c-.905 3.185 1.65 6.15 4.749 5.982a4.717 4.717 0 0 1 .163-1.726Z"/><path stroke="#000" stroke-linecap="round" stroke-linejoin="round" stroke-miterlimit="10" stroke-width="1.816" d="m42.87 51.517 5.324-1.514c5.792-1.646 7.68-8.912 3.422-13.17L41.57 26.786c-4.258-4.258-11.524-2.37-13.17 3.422l-5.556 19.545c-1.007 3.541 2.264 6.813 5.806 5.806l10.274-2.92M33.573 31.748l-.903.903M37.933 36.108l-.903.903M42.294 40.468l-.903.904M46.654 44.829l-.903.903M39.107 30.574l-.903.903M43.468 34.934l-.903.903M47.828 39.295l-.903.903M31.98 37.701l-.903.903M36.34 42.062l-.903.903M40.7 46.422l-.903.903M30.535 43.339l-.903.903M34.895 47.7l-.903.902M28.877 49.357l-.903.903"/></g></g><defs><clipPath id="a"><path fill="#fff" d="M.5 0h60v60H.5z"/></clipPath></defs></svg>