<svg xmlns="http://www.w3.org/2000/svg" width="55" height="60" fill="none"><path fill="#F44335" d="M53.5 34c0 18-11 25-18 25-5 0-7-2-8-2s-3 2-8 2c-7 0-18-7-18-25 0-16 9-20 18-20h.01c2.721-.056 5.43.388 7.99 1.31h.01A22.228 22.228 0 0 1 35.5 14c9 0 18 4 18 20Z"/><path fill="#C81E1E" d="M35.5 14c-.517 0-1.01.017-1.492.041C42.478 14.487 50.5 18.9 50.5 34c0 16.9-9.691 24.1-16.67 24.919.517.051 1.07.081 1.67.081 7 0 18-7 18-25 0-16-9-20-18-20Z"/><path fill="#F44335" d="M30.55 16.92a14.378 14.378 0 0 0-3.04-1.61l3.04 1.61Z"/><path fill="#60A917" d="M27.5 10.38v4.93A22.226 22.226 0 0 0 19.51 14h-.01a9.156 9.156 0 0 1-3.27-2.06c-3.74-3.82-2.49-10.86-2.49-10.86s7.32-.84 11.07 2.98a10.941 10.941 0 0 1 2.69 6.32Z"/><path fill="#549414" d="M24.81 4.06C21.468.66 15.31.952 14 1.06c2.434.175 5.691.845 7.81 3a10.941 10.941 0 0 1 2.69 6.32v4.083c1.022.197 2.026.48 3 .847v-4.93a10.941 10.941 0 0 0-2.69-6.32Z"/><path fill="#F5F5F5" d="M5.733 31a1 1 0 0 1-.994-1.125C5.827 21.211 10.655 17 19.5 17a1 1 0 1 1 0 2c-7.764 0-11.824 3.535-12.776 11.125a1 1 0 0 1-.991.875ZM5.5 35a1 1 0 1 0 0-2 1 1 0 0 0 0 2Z"/><path fill="#000" d="M.5 34c0 18.941 11.654 26 19 26 2.482.04 4.937-.523 7.154-1.641.268-.138.546-.258.83-.359.297.094.586.214.862.359A15.332 15.332 0 0 0 35.5 60c7.346 0 19-7.059 19-26 0-17.357-10.333-21-19-21a24.646 24.646 0 0 0-7 .945V9c0-1.881 0-5.382 3.447-7.1a1 1 0 1 0-.894-1.79 7.722 7.722 0 0 0-4.147 5.108 9.241 9.241 0 0 0-1.383-1.854C21.478-.761 13.944.049 13.626.086a1 1 0 0 0-.87.819c-.055.308-1.294 7.6 2.763 11.739.193.194.4.376.618.554C8.372 14.149.5 18.85.5 34ZM14.629 2.02c1.889-.08 6.784.007 9.466 2.739a9.736 9.736 0 0 1 2.405 5.697v3.484a24.598 24.598 0 0 0-6.778-.932 8.102 8.102 0 0 1-2.778-1.768C14.3 8.536 14.45 3.855 14.629 2.021ZM19.5 15c2.59-.051 5.167.365 7.608 1.23h.01l.03.01c.999.385 1.948.889 2.827 1.5a1 1 0 1 0 1.15-1.636c-.281-.2-.574-.387-.876-.567 1.725-.37 3.486-.55 5.251-.537 11.28 0 17 6.393 17 19 0 17.484-10.427 24-17 24-2.187.04-4.35-.457-6.3-1.449A4.169 4.169 0 0 0 27.5 56c-.6.059-1.18.247-1.7.551A13.348 13.348 0 0 1 19.5 58c-6.573 0-17-6.516-17-24 0-12.607 5.72-19 17-19Z"/></svg>